<svg width="56" height="56" viewBox="0 0 56 56" fill="none" xmlns="http://www.w3.org/2000/svg">
<path d="M1.19504 27.6649C1.19373 32.3699 2.43273 36.9641 4.78866 41.0135L0.969727 54.8489L15.2392 51.1364C19.186 53.2683 23.608 54.3854 28.1017 54.3858H28.1135C42.9481 54.3858 55.0237 42.408 55.0301 27.6859C55.0329 20.552 52.2355 13.8437 47.1531 8.79676C42.0715 3.75025 35.3133 0.969564 28.1124 0.966309C13.2762 0.966309 1.20138 12.9434 1.19526 27.6649" fill="url(#paint0_linear_17_127)"/>
<path d="M0.234063 27.6562C0.232531 32.5306 1.51594 37.2891 3.95587 41.4834L0 55.8149L14.7812 51.9693C18.8538 54.1726 23.4393 55.3343 28.1052 55.336H28.1172C43.484 55.336 55.9934 42.9275 56 27.6783C56.0026 20.2881 53.1046 13.3386 47.8406 8.11088C42.576 2.88378 35.576 0.00303876 28.1172 0C12.7479 0 0.240188 12.4068 0.234063 27.6562ZM9.03678 40.7611L8.48487 39.8918C6.16481 36.2313 4.94025 32.0014 4.942 27.6579C4.94681 14.983 15.3427 4.67101 28.126 4.67101C34.3166 4.67361 40.1345 7.06816 44.5104 11.4127C48.886 15.7577 51.2938 21.5335 51.2923 27.6766C51.2866 40.3515 40.8905 50.6648 28.1172 50.6648H28.1081C23.949 50.6626 19.8699 49.5544 16.3126 47.46L15.4661 46.9619L6.69462 49.2438L9.03678 40.7611Z" fill="url(#paint1_linear_17_127)"/>
<path d="M21.1483 16.0943C20.6263 14.9433 20.0771 14.9201 19.5807 14.8999C19.1743 14.8825 18.7097 14.8838 18.2455 14.8838C17.7808 14.8838 17.0259 15.0572 16.3878 15.7486C15.7491 16.4405 13.9492 18.1127 13.9492 21.5137C13.9492 24.9148 16.4458 28.2018 16.7938 28.6635C17.1423 29.1243 21.6136 36.327 28.6949 39.0979C34.5802 41.4007 35.7778 40.9427 37.0551 40.8272C38.3326 40.7122 41.1772 39.1555 41.7576 37.5412C42.3384 35.9272 42.3384 34.5437 42.1642 34.2546C41.9901 33.9666 41.5255 33.7936 40.8288 33.448C40.1321 33.1025 36.7067 31.4299 36.0681 31.1991C35.4294 30.9686 34.965 30.8536 34.5003 31.5458C34.0357 32.2369 32.7016 33.7936 32.2949 34.2546C31.8887 34.7167 31.482 34.7742 30.7855 34.4285C30.0884 34.0816 27.8447 33.3525 25.1827 30.9977C23.1116 29.1653 21.7133 26.9025 21.3069 26.2104C20.9004 25.5193 21.2633 25.1446 21.6127 24.8002C21.9257 24.4904 22.3096 23.9929 22.6583 23.5894C23.0057 23.1857 23.1216 22.8977 23.3539 22.4366C23.5865 21.9752 23.4701 21.5715 23.2962 21.2257C23.1216 20.8799 21.7678 17.4611 21.1483 16.0943Z" fill="white"/>
<defs>
<linearGradient id="paint0_linear_17_127" x1="2703.99" y1="5389.23" x2="2703.99" y2="0.966309" gradientUnits="userSpaceOnUse">
<stop stop-color="#1FAF38"/>
<stop offset="1" stop-color="#60D669"/>
</linearGradient>
<linearGradient id="paint1_linear_17_127" x1="2800" y1="5581.49" x2="2800" y2="0" gradientUnits="userSpaceOnUse">
<stop stop-color="#F9F9F9"/>
<stop offset="1" stop-color="white"/>
</linearGradient>
</defs>
</svg>
